<?xml version="1.0" encoding="UTF-8"?>
<svg xmlns="http://www.w3.org/2000/svg" xmlns:xlink="http://www.w3.org/1999/xlink"
     viewBox="0 0 5334 472" width="5334" height="472">
  <!--
    Mathbrooks wordmark — "MATHBROOKS"
    Orbitron 400, outlined paths, foreground #eef1f4, transparent background
  -->
  <defs>
    <!-- M -->
    <path id="M" d="M 29.125 0 L 29.125 -374.40625 L 86.84375 -374.40625 L 242.3125 -189.28125 L 397.796875 -374.40625 L 455.515625 -374.40625 L 455.515625 0 L 413.40625 0 L 413.40625 -326.5625 L 242.3125 -123.234375 L 71.234375 -326.5625 L 71.234375 0 Z"/>
    <!-- A -->
    <path id="A" d="M 30.15625 0 L 30.15625 -312 C 30.15625 -323.4375 32.925781 -333.921875 38.46875 -343.453125 C 44.019531 -352.996094 51.5625 -360.535156 61.09375 -366.078125 C 70.636719 -371.628906 81.125 -374.40625 92.5625 -374.40625 L 342.15625 -374.40625 C 353.59375 -374.40625 364.078125 -371.628906 373.609375 -366.078125 C 383.152344 -360.535156 390.691406 -352.996094 396.234375 -343.453125 C 401.785156 -333.921875 404.5625 -323.4375 404.5625 -312 L 404.5625 0 L 362.4375 0 L 362.4375 -136.765625 L 72.28125 -136.765625 L 72.28125 0 Z M 72.28125 -178.875 L 362.4375 -178.875 L 362.4375 -312 C 362.4375 -317.542969 360.441406 -322.308594 356.453125 -326.296875 C 352.472656 -330.285156 347.707031 -332.28125 342.15625 -332.28125 L 92.5625 -332.28125 C 87.011719 -332.28125 82.238281 -330.285156 78.25 -326.296875 C 74.269531 -322.308594 72.28125 -317.542969 72.28125 -312 Z"/>
    <!-- T -->
    <path id="T" d="M 176.796875 0 L 176.796875 -332.28125 L 10.40625 -332.28125 L 10.40625 -374.40625 L 384.796875 -374.40625 L 384.796875 -332.28125 L 218.921875 -332.28125 L 218.921875 0 Z"/>
    <!-- H -->
    <path id="H" d="M 29.640625 0 L 29.640625 -374.40625 L 71.765625 -374.40625 L 71.765625 -208.515625 L 370.765625 -208.515625 L 370.765625 -374.40625 L 413.40625 -374.40625 L 413.40625 0 L 370.765625 0 L 370.765625 -165.875 L 71.765625 -165.875 L 71.765625 0 Z"/>
    <!-- B -->
    <path id="B" d="M 30.6875 0 L 30.6875 -374.40625 L 326.5625 -374.40625 C 338 -374.40625 348.484375 -371.628906 358.015625 -366.078125 C 367.546875 -360.535156 375.082031 -352.996094 380.625 -343.453125 C 386.175781 -333.921875 388.953125 -323.4375 388.953125 -312 L 388.953125 -232.4375 C 388.953125 -227.582031 388.34375 -222.816406 387.125 -218.140625 C 385.917969 -213.464844 384.277344 -209.042969 382.203125 -204.875 C 389.828125 -193.4375 395.546875 -183.558594 399.359375 -175.234375 C 403.171875 -166.921875 405.078125 -158.433594 405.078125 -149.765625 L 405.078125 -62.40625 C 405.078125 -50.957031 402.300781 -40.46875 396.75 -30.9375 C 391.207031 -21.40625 383.671875 -13.863281 374.140625 -8.3125 C 364.609375 -2.769531 354.125 0 342.6875 0 Z M 93.078125 -42.125 L 342.6875 -42.125 C 348.230469 -42.125 352.988281 -44.113281 356.96875 -48.09375 C 360.957031 -52.082031 362.953125 -56.855469 362.953125 -62.40625 L 362.953125 -149.765625 C 362.953125 -155.308594 360.957031 -160.074219 356.96875 -164.0625 C 352.988281 -168.050781 348.230469 -170.046875 342.6875 -170.046875 L 93.078125 -170.046875 C 87.535156 -170.046875 82.769531 -168.050781 78.78125 -164.0625 C 74.792969 -160.074219 72.796875 -155.308594 72.796875 -149.765625 L 72.796875 -62.40625 C 72.796875 -56.855469 74.792969 -52.082031 78.78125 -48.09375 C 82.769531 -44.113281 87.535156 -42.125 93.078125 -42.125 Z M 93.078125 -212.15625 L 326.5625 -212.15625 C 332.105469 -212.15625 336.78125 -214.152344 340.59375 -218.140625 C 344.40625 -222.128906 346.3125 -226.894531 346.3125 -232.4375 L 346.3125 -312 C 346.3125 -317.542969 344.40625 -322.308594 340.59375 -326.296875 C 336.78125 -330.285156 332.105469 -332.28125 326.5625 -332.28125 L 93.078125 -332.28125 C 87.535156 -332.28125 82.769531 -330.285156 78.78125 -326.296875 C 74.792969 -322.308594 72.796875 -317.542969 72.796875 -312 L 72.796875 -232.4375 C 72.796875 -226.894531 74.792969 -222.128906 78.78125 -218.140625 C 82.769531 -214.152344 87.535156 -212.15625 93.078125 -212.15625 Z"/>
    <!-- R -->
    <path id="R" d="M 345.28125 0 L 228.28125 -139.359375 L 71.234375 -139.359375 L 71.234375 0 L 29.125 0 L 29.125 -373.875 L 341.125 -373.875 C 352.5625 -373.875 363.046875 -371.015625 372.578125 -365.296875 C 382.109375 -359.578125 389.644531 -352.035156 395.1875 -342.671875 C 400.738281 -333.316406 403.515625 -322.921875 403.515625 -311.484375 L 403.515625 -201.765625 C 403.515625 -190.316406 400.738281 -179.910156 395.1875 -170.546875 C 389.644531 -161.191406 382.109375 -153.65625 372.578125 -147.9375 C 363.046875 -142.21875 352.5625 -139.359375 341.125 -139.359375 L 283.40625 -139.359375 L 400.921875 -0.515625 L 400.921875 0 Z M 91.515625 -182 L 341.125 -182 C 346.667969 -182 351.433594 -183.90625 355.421875 -187.71875 C 359.410156 -191.53125 361.40625 -196.214844 361.40625 -201.765625 L 361.40625 -311.484375 C 361.40625 -317.027344 359.410156 -321.792969 355.421875 -325.78125 C 351.433594 -329.769531 346.667969 -331.765625 341.125 -331.765625 L 91.515625 -331.765625 C 85.972656 -331.765625 81.207031 -329.769531 77.21875 -325.78125 C 73.230469 -321.792969 71.234375 -317.027344 71.234375 -311.484375 L 71.234375 -201.765625 C 71.234375 -196.214844 73.230469 -191.53125 77.21875 -187.71875 C 81.207031 -183.90625 85.972656 -182 91.515625 -182 Z"/>
    <!-- O -->
    <path id="O" d="M 90.484375 0 C 79.035156 0 68.546875 -2.769531 59.015625 -8.3125 C 49.484375 -13.863281 41.941406 -21.40625 36.390625 -30.9375 C 30.847656 -40.46875 28.078125 -50.957031 28.078125 -62.40625 L 28.078125 -312 C 28.078125 -323.4375 30.847656 -333.921875 36.390625 -343.453125 C 41.941406 -352.996094 49.484375 -360.535156 59.015625 -366.078125 C 68.546875 -371.628906 79.035156 -374.40625 90.484375 -374.40625 L 340.078125 -374.40625 C 351.515625 -374.40625 362 -371.628906 371.53125 -366.078125 C 381.074219 -360.535156 388.613281 -352.996094 394.15625 -343.453125 C 399.707031 -333.921875 402.484375 -323.4375 402.484375 -312 L 402.484375 -62.40625 C 402.484375 -50.957031 399.707031 -40.46875 394.15625 -30.9375 C 388.613281 -21.40625 381.074219 -13.863281 371.53125 -8.3125 C 362 -2.769531 351.515625 0 340.078125 0 Z M 90.484375 -42.125 L 340.078125 -42.125 C 345.628906 -42.125 350.394531 -44.113281 354.375 -48.09375 C 358.363281 -52.082031 360.359375 -56.855469 360.359375 -62.40625 L 360.359375 -312 C 360.359375 -317.542969 358.363281 -322.308594 354.375 -326.296875 C 350.394531 -330.285156 345.628906 -332.28125 340.078125 -332.28125 L 90.484375 -332.28125 C 84.933594 -332.28125 80.160156 -330.285156 76.171875 -326.296875 C 72.191406 -322.308594 70.203125 -317.542969 70.203125 -312 L 70.203125 -62.40625 C 70.203125 -56.855469 72.191406 -52.082031 76.171875 -48.09375 C 80.160156 -44.113281 84.933594 -42.125 90.484375 -42.125 Z"/>
    <!-- K -->
    <path id="K" d="M 29.640625 0 L 29.640625 -374.40625 L 72.28125 -374.40625 L 72.28125 -208.515625 L 192.921875 -208.515625 L 332.28125 -374.40625 L 386.359375 -374.40625 L 386.359375 -373.875 L 229.84375 -187.203125 L 386.875 -0.515625 L 386.875 0 L 332.28125 0 L 192.921875 -165.875 L 72.28125 -165.875 L 72.28125 0 Z"/>
    <!-- S -->
    <path id="S" d="M 88.921875 0 C 77.484375 0 66.996094 -2.769531 57.453125 -8.3125 C 47.921875 -13.863281 40.378906 -21.40625 34.828125 -30.9375 C 29.285156 -40.46875 26.515625 -50.957031 26.515625 -62.40625 L 26.515625 -76.953125 L 68.640625 -76.953125 L 68.640625 -62.40625 C 68.640625 -56.855469 70.628906 -52.082031 74.609375 -48.09375 C 78.597656 -44.113281 83.371094 -42.125 88.921875 -42.125 L 338.515625 -42.125 C 344.066406 -42.125 348.832031 -44.113281 352.8125 -48.09375 C 356.800781 -52.082031 358.796875 -56.855469 358.796875 -62.40625 L 358.796875 -146.125 C 358.796875 -151.667969 356.800781 -156.34375 352.8125 -160.15625 C 348.832031 -163.96875 344.066406 -165.875 338.515625 -165.875 L 88.921875 -165.875 C 77.484375 -165.875 66.996094 -168.734375 57.453125 -174.453125 C 47.921875 -180.183594 40.378906 -187.722656 34.828125 -197.078125 C 29.285156 -206.441406 26.515625 -216.84375 26.515625 -228.28125 L 26.515625 -312 C 26.515625 -323.4375 29.285156 -333.921875 34.828125 -343.453125 C 40.378906 -352.996094 47.921875 -360.535156 57.453125 -366.078125 C 66.996094 -371.628906 77.484375 -374.40625 88.921875 -374.40625 L 338.515625 -374.40625 C 349.964844 -374.40625 360.453125 -371.628906 369.984375 -366.078125 C 379.515625 -360.535156 387.050781 -352.996094 392.59375 -343.453125 C 398.144531 -333.921875 400.921875 -323.4375 400.921875 -312 L 400.921875 -297.4375 L 358.796875 -297.4375 L 358.796875 -312 C 358.796875 -317.542969 356.800781 -322.308594 352.8125 -326.296875 C 348.832031 -330.285156 344.066406 -332.28125 338.515625 -332.28125 L 88.921875 -332.28125 C 83.371094 -332.28125 78.597656 -330.285156 74.609375 -326.296875 C 70.628906 -322.308594 68.640625 -317.542969 68.640625 -312 L 68.640625 -228.28125 C 68.640625 -222.730469 70.628906 -218.046875 74.609375 -214.234375 C 78.597656 -210.421875 83.371094 -208.515625 88.921875 -208.515625 L 338.515625 -208.515625 C 349.964844 -208.515625 360.453125 -205.65625 369.984375 -199.9375 C 379.515625 -194.21875 387.050781 -186.675781 392.59375 -177.3125 C 398.144531 -167.957031 400.921875 -157.5625 400.921875 -146.125 L 400.921875 -62.40625 C 400.921875 -50.957031 398.144531 -40.46875 392.59375 -30.9375 C 387.050781 -21.40625 379.515625 -13.863281 369.984375 -8.3125 C 360.453125 -2.769531 349.964844 0 338.515625 0 Z"/>
  </defs>

  <!--
    Letter positions (x offsets), spacing ~86 units between letters:
    M=19  A=605  T=1144  H=1642  B=2189  R=2726  O=3259  O=3793  K=4328  S=4865
  -->
  <g fill="#eef1f4" transform="translate(0, 423.71875)">
    <use xlink:href="#M" x="19"/>
    <use xlink:href="#A" x="605"/>
    <use xlink:href="#T" x="1144"/>
    <use xlink:href="#H" x="1642"/>
    <use xlink:href="#B" x="2189"/>
    <use xlink:href="#R" x="2726"/>
    <use xlink:href="#O" x="3259"/>
    <use xlink:href="#O" x="3793"/>
    <use xlink:href="#K" x="4328"/>
    <use xlink:href="#S" x="4865"/>
  </g>
</svg>
